<?xml version="1.0" encoding="UTF-8" standalone="no"?>
<!-- Created with Inkscape (http://www.inkscape.org/) -->
<svg
   xmlns:svg="http://www.w3.org/2000/svg"
   xmlns="http://www.w3.org/2000/svg"
   version="1.0"
   width="984"
   height="218"
   id="svg3140">
  <defs
     id="defs3142" />
  <g
     transform="translate(79.787895,-352.56387)"
     id="layer1">
    <path
       d="M -79.787895,570.56387 L 904.2121,570.56387 L 904.2121,352.56387 L -79.787895,352.56387 L -79.787895,570.56387 z"
       id="path3342"
       style="fill:#fcc310;fill-opacity:1;fill-rule:evenodd;stroke:none" />
    <g
       transform="matrix(4.0016649,0,0,4.0016649,-1291.321,-1349.521)"
       id="g3428">
      <path
         d="M 507.50179,462.85017 C 492.02029,462.83667 486.03229,449.37567 486.83779,439.16217 L 491.38579,437.72367 C 490.64479,443.52117 492.43579,447.70917 493.68529,449.62917 C 492.20929,441.41817 498.39829,434.76567 506.16079,434.76567 C 513.14029,434.75367 518.91229,439.86417 518.88679,447.17067 C 519.91279,444.38217 520.61629,440.12517 520.76179,437.15967 L 531.24679,439.77117 C 530.41129,452.06667 521.18029,462.85017 507.50179,462.85017 z M 522.56179,469.95717 L 516.60679,463.92717 L 522.50329,463.92717 L 528.46579,469.95717 L 522.56179,469.95717 L 522.56179,469.95717 z M 514.59829,469.95717 L 508.62829,463.92717 L 514.54129,463.92717 L 520.50229,469.95717 L 514.59829,469.95717 L 514.59829,469.95717 z M 501.29929,469.95717 L 495.38779,469.95717 L 501.35029,463.92717 L 507.26029,463.92717 L 501.29929,469.95717 L 501.29929,469.95717 z M 487.41979,469.95717 L 493.38829,463.92717 L 499.29079,463.92717 L 493.32979,469.95717 L 487.41979,469.95717 L 487.41979,469.95717 z M 506.17879,439.04817 C 501.55429,439.04817 497.80279,442.80417 497.80279,447.43017 C 497.80279,452.05467 501.55429,455.81067 506.17879,455.81067 C 510.81679,455.81067 514.56679,452.05467 514.56679,447.43017 C 514.56679,442.80417 510.81679,439.04817 506.17879,439.04817"
         id="path3344"
         style="fill:#231f20;fill-opacity:1;fill-rule:evenodd;stroke:none" />
      <path
         d="M 474.76729,464.11767 C 472.10029,464.11767 470.63179,462.47517 470.63179,459.89067 L 470.63179,453.22017 L 468.11629,453.22017 L 468.11629,450.73617 L 470.63179,450.73617 L 470.63179,448.12017 L 474.03979,447.02967 L 474.03979,450.73617 L 477.05479,450.73617 L 477.05479,453.22017 L 474.03979,453.22017 L 474.03979,459.32817 C 474.03979,460.44267 474.33829,461.47467 475.63729,461.47467 C 476.24479,461.47467 476.83429,461.34867 477.18829,461.13267 L 477.28279,463.81167 C 476.57479,464.02167 475.78879,464.11767 474.76729,464.11767 L 474.76729,464.11767 z M 461.47729,464.11767 C 460.17829,464.11767 458.85979,463.88217 457.61929,463.55817 L 457.81429,460.77117 C 458.88529,461.31117 459.99979,461.62617 461.16529,461.62617 C 462.03979,461.62617 463.40329,461.31117 463.40329,460.03017 C 463.40329,457.46517 457.48729,459.22017 457.48729,454.49367 C 457.48729,451.66917 459.95029,450.42567 462.62479,450.42567 C 464.22079,450.42567 465.25879,450.68667 466.32379,450.91467 L 466.10029,453.48117 C 465.05629,453.11967 464.29579,452.91567 463.05529,452.91567 C 462.14329,452.91567 461.04529,453.25317 461.04529,454.37967 C 461.04529,456.45117 466.96279,455.11917 466.96279,459.84717 C 466.96279,462.91467 464.25229,464.11767 461.47729,464.11767 L 461.47729,464.11767 z M 449.21179,464.11767 C 444.89179,464.11767 442.37629,461.13267 442.37629,457.36317 C 442.37629,453.04167 445.34779,450.42567 449.21179,450.42567 C 453.10129,450.42567 456.07279,453.04167 456.07279,457.36317 C 456.07279,461.13267 453.55729,464.11767 449.21179,464.11767 L 449.21179,464.11767 z M 435.56779,457.08567 L 434.06329,457.08567 L 434.06329,463.81167 L 430.50979,463.81167 L 430.50979,446.08767 L 435.00829,446.08767 C 438.86779,446.08767 442.40029,447.20217 442.40029,451.44117 C 442.40029,455.57517 439.37479,457.08567 435.56779,457.08567 L 435.56779,457.08567 z M 417.75829,461.62617 C 419.40379,461.62617 420.83029,461.01867 422.09779,460.30917 L 422.09779,463.07667 C 420.85579,463.76967 419.44279,464.11767 417.59929,464.11767 C 413.28529,464.11767 410.76979,461.62617 410.76979,457.33767 C 410.76979,453.55617 412.77829,450.42567 416.84629,450.42567 C 421.69879,450.42567 423.06679,453.75867 423.06679,458.33817 L 414.02629,458.33817 C 414.17929,460.44267 415.64779,461.62617 417.75829,461.62617 L 417.75829,461.62617 z M 409.12429,463.81167 L 405.72079,463.81167 L 405.72079,456.81867 C 405.72079,455.22267 405.69529,453.06717 403.50979,453.06717 C 401.04679,453.06717 400.51279,455.73567 400.51279,457.41267 L 400.51279,463.81167 L 397.11229,463.81167 L 397.11229,444.76167 L 400.51279,444.76167 L 400.51279,452.50317 L 400.56379,452.50317 C 401.42479,451.23717 402.90079,450.42567 404.67529,450.42567 C 407.78029,450.42567 409.12429,452.61867 409.12429,455.56467 L 409.12429,463.81167 z M 391.93579,464.11767 C 387.63979,464.11767 385.48579,461.18967 385.48579,457.21317 C 385.48579,453.42867 387.72379,450.42567 391.81579,450.42567 C 393.17629,450.42567 394.17229,450.58467 395.11579,450.85167 L 394.80529,453.55617 C 394.19779,453.27717 393.53779,453.06717 392.49979,453.06717 C 390.38179,453.06717 389.04079,454.74717 389.04079,457.21317 C 389.04079,459.61917 390.18679,461.47467 392.57479,461.47467 C 393.53779,461.47467 394.60729,461.13267 395.19229,460.86117 L 395.33779,463.67817 C 394.34929,463.98417 393.32929,464.11767 391.93579,464.11767 L 391.93579,464.11767 z M 378.70129,464.11767 C 377.40229,464.11767 376.08529,463.88217 374.84329,463.55817 L 375.03829,460.77117 C 376.10929,461.31117 377.23129,461.62617 378.39679,461.62617 C 379.25929,461.62617 380.62879,461.31117 380.62879,460.03017 C 380.62879,457.46517 374.70979,459.22017 374.70979,454.49367 C 374.70979,451.66917 377.17429,450.42567 379.84879,450.42567 C 381.43729,450.42567 382.48279,450.68667 383.55529,450.91467 L 383.31979,453.48117 C 382.28029,453.11967 381.51379,452.91567 380.27179,452.91567 C 379.36729,452.91567 378.26929,453.25317 378.26929,454.37967 C 378.26929,456.45117 384.18679,455.11917 384.18679,459.84717 C 384.18679,462.91467 381.47479,464.11767 378.70129,464.11767 L 378.70129,464.11767 z M 370.67479,464.11767 C 368.00179,464.11767 366.53029,462.47517 366.53029,459.89067 L 366.53029,453.22017 L 364.02229,453.22017 L 364.02229,450.73617 L 366.53029,450.73617 L 366.53029,448.12017 L 369.93829,447.02967 L 369.93829,450.73617 L 372.96979,450.73617 L 372.96979,453.22017 L 369.93829,453.22017 L 369.93829,459.32817 C 369.93829,460.44267 370.24429,461.47467 371.54179,461.47467 C 372.15079,461.47467 372.73429,461.34867 373.08829,461.13267 L 373.19629,463.81167 C 372.48079,464.02167 371.69479,464.11767 370.67479,464.11767 L 370.67479,464.11767 z M 362.48329,463.81167 L 359.25229,463.81167 L 359.25229,462.03867 L 359.20129,462.03867 C 358.15729,463.30467 356.69329,464.11767 354.90679,464.11767 C 351.81379,464.11767 350.46529,461.93667 350.46529,458.99217 L 350.46529,450.73617 L 353.87479,450.73617 L 353.87479,457.71867 C 353.87479,459.32817 353.89879,461.47467 356.08429,461.47467 C 358.54279,461.47467 359.07379,458.80917 359.07379,457.13067 L 359.07379,450.73617 L 362.48329,450.73617 L 362.48329,463.81167 z M 343.60279,461.62617 C 345.26479,461.62617 346.67629,461.01867 347.94979,460.30917 L 347.94979,463.07667 C 346.70929,463.76967 345.28279,464.11767 343.45279,464.11767 C 339.13729,464.11767 336.62329,461.62617 336.62329,457.33767 C 336.62329,453.55617 338.63029,450.42567 342.69079,450.42567 C 347.54479,450.42567 348.91429,453.75867 348.91429,458.33817 L 339.87079,458.33817 C 340.02379,460.44267 341.50129,461.62617 343.60279,461.62617 L 343.60279,461.62617 z M 325.03579,463.81167 L 320.18329,463.81167 L 320.18329,446.08767 L 325.03579,446.08767 C 330.46429,446.08767 335.26729,447.91767 335.26729,454.95717 C 335.26729,461.98767 330.46429,463.81167 325.03579,463.81167 L 325.03579,463.81167 z M 342.89479,452.91567 C 340.98679,452.91567 340.02379,454.24767 339.87079,455.98917 L 345.66379,455.98917 C 345.56029,454.33617 344.80129,452.91567 342.89479,452.91567 z M 325.71979,448.87917 L 323.74429,448.87917 L 323.74429,461.01867 L 325.71979,461.01867 C 328.69129,461.01867 331.56079,458.80917 331.56079,454.95717 C 331.56079,451.07967 328.69129,448.87917 325.71979,448.87917 z M 435.30679,448.87917 L 434.06329,448.87917 L 434.06329,454.28517 L 435.30679,454.28517 C 437.09329,454.28517 438.68929,453.71517 438.68929,451.64367 C 438.68929,449.59617 437.14279,448.87917 435.30679,448.87917 z M 449.21179,453.06717 C 447.00079,453.06717 445.93129,454.99917 445.93129,456.96417 C 445.93129,459.11817 446.62279,461.47467 449.21179,461.47467 C 451.82179,461.47467 452.51179,459.14367 452.51179,456.96417 C 452.51179,454.95717 451.44829,453.06717 449.21179,453.06717 z M 417.04879,452.91567 C 415.14079,452.91567 414.17929,454.24767 414.02629,455.98917 L 419.81029,455.98917 C 419.71579,454.33617 418.95529,452.91567 417.04879,452.91567"
         id="path3346"
         style="fill:#231f20;fill-opacity:1;fill-rule:evenodd;stroke:none" />
    </g>
  </g>
</svg>
