<?xml version="1.0" encoding="UTF-8" standalone="no"?>
<!-- Created with Inkscape (http://www.inkscape.org/) -->

<svg
   xmlns:dc="http://purl.org/dc/elements/1.1/"
   xmlns:cc="http://creativecommons.org/ns#"
   xmlns:rdf="http://www.w3.org/1999/02/22-rdf-syntax-ns#"
   xmlns:svg="http://www.w3.org/2000/svg"
   xmlns="http://www.w3.org/2000/svg"
   xmlns:sodipodi="http://sodipodi.sourceforge.net/DTD/sodipodi-0.dtd"
   xmlns:inkscape="http://www.inkscape.org/namespaces/inkscape"
   width="142.47523"
   height="92.536247"
   viewBox="0 0 37.696571 24.483549"
   version="1.1"
   id="svg22441"
   inkscape:version="0.92.0 r15299"
   sodipodi:docname="ontrac.svg">
  <defs
     id="defs22435" />
  <sodipodi:namedview
     id="base"
     pagecolor="#ffffff"
     bordercolor="#666666"
     borderopacity="1.0"
     inkscape:pageopacity="0.0"
     inkscape:pageshadow="2"
     inkscape:zoom="4.9998627"
     inkscape:cx="70.737612"
     inkscape:cy="38.234782"
     inkscape:document-units="mm"
     inkscape:current-layer="layer1"
     showgrid="false"
     fit-margin-top="0"
     fit-margin-left="0"
     fit-margin-right="0"
     fit-margin-bottom="0"
     units="px"
     inkscape:window-width="1280"
     inkscape:window-height="744"
     inkscape:window-x="-4"
     inkscape:window-y="-4"
     inkscape:window-maximized="1" />
  <metadata
     id="metadata22438">
    <rdf:RDF>
      <cc:Work
         rdf:about="">
        <dc:format>image/svg+xml</dc:format>
        <dc:type
           rdf:resource="http://purl.org/dc/dcmitype/StillImage" />
        <dc:title></dc:title>
      </cc:Work>
    </rdf:RDF>
  </metadata>
  <g
     inkscape:label="Layer 1"
     inkscape:groupmode="layer"
     id="layer1"
     transform="translate(-115.58054,-241.55678)">
    <g
       id="g22670"
       transform="translate(0.13229129,-0.13228478)">
      <path
         inkscape:connector-curvature="0"
         id="path20140"
         style="fill:#1d2953;fill-opacity:1;fill-rule:nonzero;stroke:none;stroke-width:0.35277778"
         d="m 149.54662,263.00403 c 0,1.04704 -0.37006,1.48378 -1.04493,1.48378 -0.67486,0 -1.04634,-0.43674 -1.04634,-1.48378 v -3.34116 c 0,-1.04493 0.37148,-1.48449 1.04634,-1.48449 0.67487,0 1.04493,0.43956 1.04493,1.48449 v 0.23742 h 1.88912 c -0.0325,-1.94133 -0.80997,-3.27307 -2.93405,-3.27307 -2.15935,0 -2.93546,1.38324 -2.93546,3.37397 v 2.66629 c 0,1.99037 0.77611,3.37256 2.93546,3.37256 2.15971,0 2.93405,-1.38219 2.93405,-3.37256 v -0.23742 h -1.88912 z" />
      <path
         inkscape:connector-curvature="0"
         id="path20144"
         style="fill:#1d2953;fill-opacity:1;fill-rule:nonzero;stroke:none;stroke-width:0.35277778"
         d="m 144.77276,259.08954 c 0,-1.65241 -0.99483,-2.46239 -2.74955,-2.46239 -1.77094,0 -2.93476,0.99483 -3.03706,2.83386 h 1.89124 c 0.0321,-0.77646 0.21731,-1.28269 1.07879,-1.28269 0.62407,0 0.9271,0.40534 0.9271,1.16416 v 0.53975 c -2.71568,1.02941 -4.03154,2.12549 -4.03154,4.11762 0,1.16382 0.64135,2.04047 1.92299,2.04047 0.91122,0 1.50177,-0.30339 2.2098,-0.87665 0.0176,0.21837 0.0854,0.45543 0.10125,0.70838 h 1.80587 c -0.0505,-0.3041 -0.11889,-0.67487 -0.11889,-0.96168 z m -1.88948,4.55471 c -0.32032,0.45579 -0.74295,0.8435 -1.264,0.8435 -0.57503,0 -0.87771,-0.23531 -0.87771,-0.82515 0,-0.79269 0.42263,-1.41782 2.14171,-2.39572 z" />
      <path
         inkscape:connector-curvature="0"
         id="path20148"
         style="fill:#1d2953;fill-opacity:1;fill-rule:nonzero;stroke:none;stroke-width:0.35277778"
         d="m 137.73876,258.41475 c 0.55668,0 0.87771,0.10125 1.21497,0.18521 v -1.97309 h -0.38912 c -0.89394,0 -1.68663,0.45544 -2.14171,1.2319 h -0.0339 v -1.06221 h -1.80481 v 9.07556 h 1.88877 v -6.24276 c 0,-0.80856 0.62442,-1.21461 1.26577,-1.21461" />
      <path
         inkscape:connector-curvature="0"
         id="path20152"
         style="fill:#1d2953;fill-opacity:1;fill-rule:nonzero;stroke:none;stroke-width:0.35277778"
         d="m 130.97139,265.8719 h 2.09232 v -10.35932 h 2.0246 v -1.82139 h -6.14081 v 1.82139 h 2.02389 z" />
      <path
         inkscape:connector-curvature="0"
         id="path20156"
         style="fill:#fbcb07;fill-opacity:1;fill-rule:nonzero;stroke:none;stroke-width:0.35277778"
         d="m 127.25992,256.62704 c -1.09679,0 -1.50142,0.40464 -2.29411,1.07879 v -0.90981 h -1.78823 v 9.07627 h 1.89018 v -7.12047 c 0.43815,-0.31962 0.80927,-0.57326 1.21461,-0.57326 0.40429,0 0.67346,0.20249 0.67346,0.65793 v 7.0358 h 1.88983 v -7.33919 c 0,-1.1811 -0.58985,-1.90606 -1.58574,-1.90606" />
      <path
         inkscape:connector-curvature="0"
         id="path20160"
         style="fill:#fbcb07;fill-opacity:1;fill-rule:nonzero;stroke:none;stroke-width:0.35277778"
         d="m 119.06129,253.52263 c -2.19322,0 -3.20604,1.40053 -3.20604,3.12067 v 6.27592 c 0,1.7212 1.01282,3.12102 3.20604,3.12102 2.19287,0 3.20534,-1.39982 3.20534,-3.12102 v -6.27592 c 0,-1.72014 -1.01247,-3.12067 -3.20534,-3.12067 m 1.11372,9.34685 c 0,0.91052 -0.27058,1.34902 -1.11372,1.34902 -0.84349,0 -1.11372,-0.4385 -1.11372,-1.34902 v -6.17503 c 0,-0.91087 0.27023,-1.35043 1.11372,-1.35043 0.84314,0 1.11372,0.43956 1.11372,1.35043 z" />
      <path
         inkscape:connector-curvature="0"
         id="path20164"
         style="fill:#fbcb07;fill-opacity:1;fill-rule:nonzero;stroke:none;stroke-width:0.35277778"
         d="m 115.58054,252.34907 c 1.54023,-1.13383 6.64492,-5.05495 14.19542,-1.89583 0,0 -3.5e-4,-3.31293 0,-3.83399 -8.14211,-1.39559 -12.43612,2.4818 -14.19542,5.72982" />
      <path
         inkscape:connector-curvature="0"
         id="path20168"
         style="fill:#fbcb07;fill-opacity:1;fill-rule:nonzero;stroke:none;stroke-width:0.35277778"
         d="m 120.91634,245.73713 c -0.74824,0.51047 -1.58115,1.25518 -2.02071,1.82915 5.30119,-3.31752 11.34039,-1.71238 11.38908,-1.69792 0.0589,-0.0183 11.38237,-3.52354 11.38237,-3.52354 0,0 -12.12991,-2.49026 -20.75074,3.39231" />
      <path
         inkscape:connector-curvature="0"
         id="path20172"
         style="fill:#ffffff;fill-opacity:1;fill-rule:nonzero;stroke:none;stroke-width:0.35277778"
         d="m 142.97917,243.37224 -11.84945,3.65478 v 3.48932 l 9.63436,4.1522 11.79406,-4.3748 v -3.70911 z" />
      <path
         inkscape:connector-curvature="0"
         id="path20176"
         style="fill:#fbcb07;fill-opacity:1;fill-rule:nonzero;stroke:none;stroke-width:0.35277778"
         d="m 153.01228,246.41436 c 0,-7.1e-4 0.008,-0.29175 -0.31432,-0.43427 -0.0162,-0.007 -9.67599,-3.16124 -9.67599,-3.16124 -0.0907,-0.0293 -0.19227,-0.0307 -0.28258,-0.002 l -11.87344,3.67276 c -0.29739,0.11854 -0.32703,0.37395 -0.32985,0.42757 v 3.71405 c 0,0.18803 0.11254,0.35806 0.28716,0.43038 l 9.80405,4.12327 v -3.5e-4 c 0.17427,0.0818 0.35807,0.031 0.40499,0.0141 l 11.678,-4.43018 c 0.18239,-0.0702 0.30198,-0.24413 0.30198,-0.43815 z m -21.54096,1.21179 8.87518,3.54365 v 2.86597 l -8.87518,-3.71651 z m 9.3479,2.72521 -8.41269,-3.3588 10.46621,-3.23779 8.26347,2.6991 z m 11.25714,-0.34361 -10.79324,4.09434 v -2.92594 l 10.79324,-4.07811 z" />
      <path
         inkscape:connector-curvature="0"
         id="path20180"
         style="fill:#1d2953;fill-opacity:1;fill-rule:nonzero;stroke:none;stroke-width:0.35277778"
         d="m 134.73465,247.23402 2.1657,-0.72531 c 0.0907,-0.0311 0.13229,-0.11959 0.0938,-0.19791 -0.0381,-0.0773 -0.14287,-0.11712 -0.23318,-0.0871 l -2.16641,0.72743 c -0.0903,0.0303 -0.13265,0.11854 -0.0942,0.19685 0.0392,0.0776 0.14322,0.11642 0.23424,0.0861" />
      <path
         inkscape:connector-curvature="0"
         id="path20184"
         style="fill:#1d2953;fill-opacity:1;fill-rule:nonzero;stroke:none;stroke-width:0.35277778"
         d="m 135.25559,247.43976 c 0.0395,0.0776 0.14217,0.11747 0.23248,0.0868 l 2.16606,-0.72742 c 0.0903,-0.0293 0.13299,-0.11783 0.0942,-0.19615 -0.0385,-0.0787 -0.14323,-0.11712 -0.23354,-0.0871 l -2.16676,0.72813 c -0.09,0.0296 -0.13194,0.11818 -0.0924,0.19579" />
      <path
         inkscape:connector-curvature="0"
         id="path20188"
         style="fill:#1d2953;fill-opacity:1;fill-rule:nonzero;stroke:none;stroke-width:0.35277778"
         d="m 139.79775,247.21459 2.95734,-1.07139 c 0.12135,-0.0437 0.17709,-0.16474 0.127,-0.26952 -0.0536,-0.10689 -0.19333,-0.15663 -0.31503,-0.11253 l -2.96334,1.06609 c -0.12559,0.0452 -0.18415,0.16792 -0.12947,0.27517 0.0533,0.10724 0.19826,0.15698 0.3235,0.11218" />
      <path
         inkscape:connector-curvature="0"
         id="path20192"
         style="fill:#1d2953;fill-opacity:1;fill-rule:nonzero;stroke:none;stroke-width:0.35277778"
         d="m 140.39352,247.49399 c 0.0533,0.10442 0.19473,0.15522 0.31997,0.10936 l 2.93264,-1.06997 c 0.121,-0.0444 0.17745,-0.16581 0.12524,-0.27129 -0.0504,-0.10372 -0.19086,-0.15346 -0.31186,-0.11007 l -2.93899,1.06786 c -0.12453,0.0441 -0.18133,0.16757 -0.127,0.27411" />
      <path
         inkscape:connector-curvature="0"
         id="path20196"
         style="fill:#1d2953;fill-opacity:1;fill-rule:nonzero;stroke:none;stroke-width:0.35277778"
         d="m 141.42561,247.86454 c 0.0533,0.10548 0.19614,0.15416 0.31891,0.10901 l 2.90583,-1.07103 c 0.11853,-0.0434 0.17463,-0.1644 0.12277,-0.26847 -0.0512,-0.10407 -0.18944,-0.15381 -0.30833,-0.11042 l -2.91112,1.06857 c -0.12242,0.0441 -0.18133,0.16686 -0.12806,0.27234" />
      <path
         inkscape:connector-curvature="0"
         id="path20200"
         style="fill:#1d2953;fill-opacity:1;fill-rule:nonzero;stroke:none;stroke-width:0.35277778"
         d="m 152.83014,255.71836 c 0.11853,0.11853 0.18239,0.27622 0.18239,0.44626 0,0.17357 -0.0639,0.32597 -0.18239,0.44274 -0.12382,0.12206 -0.28328,0.18944 -0.44979,0.18944 -0.16828,0 -0.32385,-0.0674 -0.4445,-0.18768 -0.1203,-0.12065 -0.18592,-0.27622 -0.18592,-0.4445 0,-0.16651 0.0656,-0.32596 0.18768,-0.44979 0.11677,-0.11853 0.27094,-0.18238 0.44274,-0.18238 0.1718,0 0.32949,0.0656 0.44979,0.18591 m -0.0441,0.0441 c -0.11006,-0.10972 -0.25153,-0.16828 -0.40569,-0.16828 -0.15381,0 -0.29387,0.0586 -0.39829,0.1651 -0.11006,0.11148 -0.17004,0.25471 -0.17004,0.40534 0,0.15064 0.06,0.2921 0.16793,0.40041 0.1083,0.10795 0.24976,0.16792 0.4004,0.16792 0.14887,0 0.29386,-0.06 0.40569,-0.17004 0.10619,-0.10442 0.16475,-0.24236 0.16475,-0.39829 0,-0.15416 -0.0586,-0.29562 -0.16475,-0.40216 m -0.085,0.2286 c 0,0.10089 -0.0674,0.17709 -0.17533,0.18944 l 0.16475,0.34008 h -0.11359 l -0.1577,-0.32597 h -0.18379 v 0.32597 h -0.0995 v -0.73131 h 0.26388 c 0.20214,0 0.30127,0.0603 0.30127,0.20179 m -0.46566,-0.13441 v 0.27093 h 0.14499 c 0.15416,0 0.21978,-0.0286 0.21978,-0.14005 0,-0.0921 -0.0727,-0.13088 -0.21978,-0.13088 z" />
    </g>
  </g>
</svg>
